Simulation
nRows=16
nColumns=15
endheader
time  TH_x TH_y TH_z SC_y  SC_z  SC_x  AC_y  AC_z  AC_x  GH_y  GH_z  GH_yy  EL_x  PS_y
2.8725  0.000000  0.000000  0.000000  -40.90048120751995  -9.240904987526847  1.4870176174626675  61.3088445470853  -9.58819435245292  6.9471506271860655  34.435966427972176  50.371256923432334  -49.56646624385941  19.552272059271452  120.000000
2.92995  0.000000  0.000000  0.000000  -40.09185229721726  -6.840468824360209  0.737199469721804  60.35030665622284  -9.309503305795342  9.088755610587654  31.906987485022057  46.52486861022846  -47.86014569414122  22.394370817102832  120.000000
2.9874  0.000000  0.000000  0.000000  -43.780180495813724  -7.309947741295514  2.504346030881623  68.84043303510323  -7.958656433743164  13.927089092164959  9.35317771988075  39.04116058141277  -26.859425452109097  22.859777217614642  120.000000
3.0448500000000003  0.000000  0.000000  0.000000  -42.95181668290251  -6.189012894245769  2.2255428047903396  57.6370068242681  -7.881657852594093  4.423469254852271  28.093998740730473  31.63156023150052  -46.93276864940032  28.579863531267637  120.000000
3.1023  0.000000  0.000000  0.000000  -47.16217215540784  -3.2290125735518806  -3.2379614707713986  56.79411909144051  -0.36638918082951805  6.247857731044232  44.73497916745512  28.95957288104347  -60.408651056543796  28.872790889290652  120.000000
3.15975  0.000000  0.000000  0.000000  -49.47144570637806  0.9049606315783242  0.3897118445877761  69.40209948088608  -2.805511544104564  19.71949864168016  5.870115493641431  30.251197663387895  -2.4812107722316536  26.494509188766724  120.000000
3.2172  0.000000  0.000000  0.000000  -43.97381500590263  -4.594102085983467  7.37879480110678  67.68519937286679  -8.975532889963567  11.784887162817622  -3.9710375174047394  47.66097623823896  23.604281744006375  28.646297923767467  120.000000
3.2746500000000003  0.000000  0.000000  0.000000  -39.06491458756114  -13.123156200790275  7.305589055645626  58.08122389603266  -7.713551511430315  -4.804537464185617  15.646163695672747  49.340341273836025  9.01230030659003  25.486724352335646  120.000000
3.3321  0.000000  0.000000  0.000000  -33.86139675922254  -9.076857022232717  -7.409898694773275  39.027099410729754  -4.060360876047964  -7.539416035633931  47.94708639656038  59.13002048092914  -22.316280736048416  20.573810046430328  120.000000
3.38955  0.000000  0.000000  0.000000  -45.69292758111829  -3.338034175340517  -16.15855022600797  42.24103299316652  13.083402914041434  1.6760329217113565  69.61088852116184  44.46469325647748  -41.29699446289956  16.645174761025608  120.000000
3.447  0.000000  0.000000  0.000000  -59.889467790796466  4.142724263604606  -8.371261245618044  53.22781771611322  20.34456169541052  13.8310688736014  73.95922345311192  13.585246583611314  -52.627919754371156  21.028294756776024  120.000000
3.5044500000000003  0.000000  0.000000  0.000000  -50.41461241224698  15.569755693054175  -13.201038982222126  46.81830840438259  15.208080521076283  21.077558282712786  -40.33089340859053  7.231704918264319  41.6270216087392  30.270589498336545  120.000000
3.5619  0.000000  0.000000  0.000000  -42.64890204273911  22.256899075764462  -11.06182744216757  41.58792883532674  5.7554702209853685  19.87779087738902  -65.60578086241837  11.178731320468007  77.2831130260675  29.237498607616327  120.000000
3.61935  0.000000  0.000000  0.000000  -46.61746584553657  18.91367354786149  -0.4178908335837019  44.44317155069248  1.90792883689666  10.931195241869268  -69.0188345835844  5.776560552163803  76.71624460130715  22.344085485807497  120.000000
3.6768  0.000000  0.000000  0.000000  -45.21877342874264  2.646534999313273  -2.0798088449092718  43.37543459075863  -4.715801040609423  -1.800226629727274  45.520408319483685  21.95349215069559  -59.623415547256414  18.952896014297338  120.000000
3.7342500000000003  0.000000  0.000000  0.000000  -39.014585735462084  -12.395145740059457  3.441344360035861  57.43523664457443  -12.233064574799169  0.8896763894328132  -11.107642151052536  28.031470506307624  -1.9786316423672177  18.062472614575974  120.000000
